<?xml version="1.0" encoding="UTF-8" standalone="no"?>
<!DOCTYPE svg PUBLIC "-//W3C//DTD SVG 1.1//EN" "http://www.w3.org/Graphics/SVG/1.1/DTD/svg11.dtd">
<svg version="1.1" xmlns="http://www.w3.org/2000/svg" xmlns:xlink="http://www.w3.org/1999/xlink" preserveAspectRatio="xMidYMid meet" viewBox="189.72000000000003 319 234.63319148936176 23.200000000000045" width="230.63" height="19.2"><defs><path d="M309.76 320C309.76 320 309.76 320 309.76 320C309.76 331.52 309.76 337.92 309.76 339.2C309.76 339.2 309.76 339.2 309.76 339.2C238.34 339.2 198.66 339.2 190.72 339.2C190.72 339.2 190.72 339.2 190.72 339.2C190.72 327.68 190.72 321.28 190.72 320C190.72 320 190.72 320 190.72 320C262.14 320 301.82 320 309.76 320Z" id="hnoI33pEa"></path><path d="M421.35 320C421.35 320 421.35 320 421.35 320C421.35 331.52 421.35 337.92 421.35 339.2C421.35 339.2 421.35 339.2 421.35 339.2C349.93 339.2 310.25 339.2 302.31 339.2C302.31 339.2 302.31 339.2 302.31 339.2C302.31 327.68 302.31 321.28 302.31 320C302.31 320 302.31 320 302.31 320C373.74 320 413.42 320 421.35 320Z" id="bcLq6YfzY"></path></defs><g><g><use xlink:href="#hnoI33pEa" opacity="1" fill="#f26722" fill-opacity="1"></use><g><use xlink:href="#hnoI33pEa" opacity="1" fill-opacity="0" stroke="#000000" stroke-width="1" stroke-opacity="0"></use></g></g><g><use xlink:href="#bcLq6YfzY" opacity="1" fill="#f26722" fill-opacity="1"></use><g><use xlink:href="#bcLq6YfzY" opacity="1" fill-opacity="0" stroke="#000000" stroke-width="1" stroke-opacity="0"></use></g></g></g></svg>